IKResults
version=1
nRows=16
nColumns=40
inDegrees=yes

Units are S.I. units (second, meters, Newtons, ...)
Angles are in degrees.

endheader
time	pelvis_tilt	pelvis_list	pelvis_rotation	pelvis_tx	pelvis_ty	pelvis_tz	hip_flexion_r	hip_adduction_r	hip_rotation_r	knee_angle_r	knee_angle_r_beta	ankle_angle_r	subtalar_angle_r	mtp_angle_r	hip_flexion_l	hip_adduction_l	hip_rotation_l	knee_angle_l	knee_angle_l_beta	ankle_angle_l	subtalar_angle_l	mtp_angle_l	lumbar_extension	lumbar_bending	lumbar_rotation	arm_flex_r	arm_add_r	arm_rot_r	elbow_flex_r	pro_sup_r	wrist_flex_r	wrist_dev_r	arm_flex_l	arm_add_l	arm_rot_l	elbow_flex_l	pro_sup_l	wrist_flex_l	wrist_dev_l
      1.13000000	     18.22902097	     -0.04854214	      1.62709132	      0.03113914	      0.94939830	      0.99004822	      1.62948806	     -2.07402539	     -7.53008935	    -44.54505283	     -0.77745784	      6.44196794	    -15.31690974	     11.08701959	    -22.50010637	     -1.31811581	     15.98320584	    -10.33204176	     -0.18032815	     10.60727984	     -1.40570534	     -5.78302334	    -23.27828809	     -0.12107889	     -4.12399139	     -7.69838611	     -9.32761433	     -2.57664543	     19.64037056	     89.95437384	      0.00000000	      0.00000000	     10.01957068	     10.78530471	     10.06867607	     26.87731934	     89.95437384	      0.00000000	      0.00000000
      1.14000000	     18.16308762	     -0.34570867	      1.97355967	      0.04061181	      0.94868958	      0.98976149	      2.11397738	     -1.94625738	     -8.80067866	    -42.17477614	     -0.73608870	      6.21735328	    -15.02628851	     11.19615551	    -23.08273834	     -0.88706594	     15.80305317	    -10.27310405	     -0.17929949	     10.94792364	     -1.34498801	     -5.77115091	    -23.27144205	      0.33906360	     -4.35616698	     -8.23126707	     -9.27214701	     -3.22283443	     19.18591935	     89.95437384	      0.00000000	      0.00000000	     10.81925323	     10.93034242	     10.19997373	     28.14519870	     89.95437384	      0.00000000	      0.00000000
      1.15000000	     17.69228572	     -0.37375713	      1.96026663	      0.04983574	      0.94723565	      0.98974335	      3.18076384	     -2.13221641	     -9.68715972	    -40.02586117	     -0.69858306	      6.02260541	    -14.44484538	     11.08092728	    -23.18800606	     -0.87931680	     15.77801797	    -10.30538099	     -0.17986283	     11.43827141	     -1.34338581	     -5.72605546	    -22.85541210	      0.40135998	     -4.37307059	     -8.73710478	     -9.28827830	     -3.47955923	     18.73005214	     89.95437384	      0.00000000	      0.00000000	     11.57523390	     11.07250536	     10.22725177	     29.35632392	     89.95437384	      0.00000000	      0.00000000
      1.16000000	     17.07687588	     -0.28619311	      1.65435941	      0.05888604	      0.94536463	      0.98997067	      4.57272410	     -2.53205210	    -10.66592298	    -38.18635514	     -0.66647763	      5.94824376	    -14.03936383	     10.96598131	    -23.08829693	     -1.10770521	     15.93269126	    -10.44594022	     -0.18231605	     11.64168476	     -1.25809081	     -5.65445831	    -22.31490863	      0.26299086	     -4.01586880	     -9.41963880	     -9.39078549	     -3.41370089	     18.48266470	     89.95437384	      0.00000000	      0.00000000	     12.45307151	     11.09188766	     10.28326015	     30.51334764	     89.95437384	      0.00000000	      0.00000000
      1.17000000	     17.31382061	     -0.96080981	      2.33443726	      0.06873152	      0.94514569	      0.98980215	      4.08411957	     -1.84756942	    -12.37560306	    -34.76601558	     -0.60678144	      5.14082444	    -12.56083588	     10.82380940	    -24.05570464	     -0.13422316	     15.24724561	    -10.31707367	     -0.18006690	     12.26677663	     -0.88162619	     -5.75548795	    -22.59508979	      1.19786887	     -4.59569573	     -9.70849148	     -9.34309983	     -4.14910224	     17.99858732	     89.95437384	      0.00000000	      0.00000000	     12.86236548	     11.25222185	     10.64338436	     32.14574541	     89.95437384	      0.00000000	      0.00000000
      1.18000000	     16.96871482	     -1.19283964	      2.35781843	      0.07816012	      0.94376636	      0.99010299	      4.67242525	     -1.74550302	    -13.68051877	    -32.09466906	     -0.56015765	      4.59889405	    -11.00443556	     10.41568469	    -24.31028879	      0.10545870	     15.00351542	    -10.34266312	     -0.18051352	     12.79198779	     -0.52458083	     -5.78264336	    -22.30376315	      1.47739234	     -4.58679723	    -10.07144230	     -9.31335609	     -5.00316320	     17.60208668	     89.95437384	      0.00000000	      0.00000000	     13.39931807	     11.33242439	     10.78409378	     33.55424149	     89.95437384	      0.00000000	      0.00000000
      1.19000000	     16.58109788	     -1.44819678	      2.37886348	      0.08749902	      0.94225560	      0.99047066	      5.27752311	     -1.57669340	    -14.88394652	    -29.45728516	     -0.51412661	      3.92679508	     -9.05105082	      9.87951754	    -24.46187081	      0.38774070	     14.76580192	    -10.47254184	     -0.18278034	     13.28048925	     -0.21955590	     -5.77303547	    -21.97792597	      1.77946645	     -4.57917242	    -10.50279958	     -9.34743767	     -5.72514271	     17.40928149	     89.95437384	      0.00000000	      0.00000000	     13.91239217	     11.40801334	     10.87952937	     34.93560257	     89.95437384	      0.00000000	      0.00000000
      1.20000000	     16.40283671	     -1.72334075	      2.61332577	      0.09716357	      0.94105045	      0.99084463	      5.49838418	     -1.40730236	    -16.65735434	    -26.81065272	     -0.46793416	      3.48414477	     -6.25433081	      8.64342485	    -24.79995484	      0.79688340	     14.18836506	    -10.74090208	     -0.18746411	     13.59439492	      0.18839472	     -5.77589876	    -21.83947450	      2.14163689	     -4.74463948	    -10.95615729	     -9.25970835	     -6.87687970	     17.32185198	     89.95437384	      0.00000000	      0.00000000	     14.34628594	     11.52681413	     10.93880829	     36.36620356	     89.95437384	      0.00000000	      0.00000000
      1.21000000	     16.12883927	     -1.87667695	      2.77966359	      0.10680921	      0.93954266	      0.99085979	      5.88328442	     -1.50411150	    -18.69222712	    -24.36609518	     -0.42526859	      2.25154874	     -3.35138989	     -2.69157685	    -25.17321686	      0.94601916	     13.39025542	    -10.65505599	     -0.18596581	     14.13812148	      1.30806034	     -6.33582441	    -21.61083778	      2.40987591	     -4.85849360	    -11.28929136	     -9.24902618	     -7.89714175	     16.99254353	     89.95437384	      0.00000000	      0.00000000	     14.74169106	     11.55579971	     10.99413665	     37.79483201	     89.95437384	      0.00000000	      0.00000000
      1.22000000	     15.96674389	     -2.30666802	      3.06002255	      0.11654092	      0.93819042	      0.99130315	      6.01925095	     -1.01324934	    -20.21930111	    -21.93553409	     -0.38284729	      2.38203924	     -0.20167490	     -3.19650101	    -25.44128387	      1.57844344	     13.06970152	    -11.01894134	     -0.19231681	     14.63865801	      1.55464856	     -6.41074012	    -21.48817527	      2.95692520	     -5.01854840	    -11.68095056	     -9.26497002	     -8.76777350	     16.90629560	     89.95437384	      0.00000000	      0.00000000	     15.06160177	     11.64615348	     11.02758601	     39.23703080	     89.95437384	      0.00000000	      0.00000000
      1.23000000	     15.67732393	     -2.68372064	      3.06138424	      0.12620062	      0.93653201	      0.99212140	      6.40290846	     -0.44033838	    -20.79328889	    -19.88540046	     -0.34706571	      2.84792070	      2.29306814	     -3.65278064	    -25.58371253	      2.03188973	     12.89795109	    -11.44913724	     -0.19982514	     15.23685477	      1.85910319	     -6.42863502	    -21.23946878	      3.34686720	     -4.97465618	    -11.96650528	     -9.31303232	     -9.39287972	     16.74843008	     89.95437384	      0.00000000	      0.00000000	     15.29802010	     11.66650394	     11.17980270	     40.71827231	     89.95437384	      0.00000000	      0.00000000
      1.24000000	     15.63977767	     -2.84109646	      3.49084182	      0.13636588	      0.93513410	      0.99222418	      6.61773558	     -0.58347565	    -23.30296560	    -18.75717483	     -0.32737446	      3.49668116	      7.19676236	     -5.63360214	    -26.01341293	      2.42518930	     12.23196070	    -11.80257911	     -0.20599387	     15.53654947	      2.22818791	     -6.66412760	    -21.19557318	      3.66560898	     -5.32855616	    -12.36395301	     -9.25171351	    -10.48898061	     16.80691028	     89.95437384	      0.00000000	      0.00000000	     15.49074826	     11.79417757	     11.14527871	     42.14900737	     89.95437384	      0.00000000	      0.00000000
      1.25000000	     15.57521107	     -3.12343223	      3.81043679	      0.14644643	      0.93374147	      0.99274836	      6.73767834	     -0.24605464	    -24.44210820	    -17.42137924	     -0.30406043	      3.50286253	      9.18992881	     -9.56209924	    -26.44110992	      2.87835696	     11.44140547	    -12.15892842	     -0.21221333	     15.94106783	      3.04111301	     -6.68644065	    -21.13618727	      4.05215559	     -5.59136121	    -12.65414396	     -9.26672875	    -11.03697035	     16.83535183	     89.95437384	      0.00000000	      0.00000000	     15.61750536	     11.86800106	     11.22361396	     43.57729303	     89.95437384	      0.00000000	      0.00000000
      1.26000000	     15.36697217	     -3.44964377	      3.90273781	      0.15651117	      0.93211189	      0.99368099	      7.02040876	      0.33278362	    -24.31577832	    -16.36379087	     -0.28560203	      3.96648955	      9.95358601	     -9.70295659	    -26.66389915	      3.34587759	     11.20706223	    -12.61426204	     -0.22016041	     16.38588065	      3.28446355	     -6.67449405	    -20.94402562	      4.40489632	     -5.64874167	    -12.92168358	     -9.32171482	    -11.36597987	     16.91430639	     89.95437384	      0.00000000	      0.00000000	     15.66573686	     11.89825645	     11.36239599	     44.98744371	     89.95437384	      0.00000000	      0.00000000
      1.27000000	     15.48134419	     -3.82833576	      4.32757814	      0.16683395	      0.93101234	      0.99432851	      6.76007048	      0.95058281	    -24.61178845	    -15.40296890	     -0.26883252	      3.98598285	     10.49679909	     -9.86159136	    -27.08861035	      4.05818839	     10.77663057	    -13.35042514	     -0.23300888	     16.63921267	      3.67379291	     -6.67368527	    -21.05729476	      4.91518896	     -5.91876526	    -13.14871677	     -9.31214130	    -11.87657243	     16.99681356	     89.95437384	      0.00000000	      0.00000000	     15.72815906	     11.87003197	     11.51600295	     46.26556810	     89.95437384	      0.00000000	      0.00000000
      1.28000000	     15.47676944	     -4.04072722	      4.67760030	      0.17730978	      0.92976002	      0.99494506	      6.71857131	      1.33395357	    -24.54808187	    -15.06510723	     -0.26293572	      4.06303541	     10.38387904	     -9.96477120	    -27.42613231	      4.54447216	     10.18920471	    -14.03104501	     -0.24488793	     16.74892150	      4.03431247	     -6.63171478	    -21.00573967	      5.24085635	     -6.17286631	    -13.38693860	     -9.35254489	    -12.05586825	     17.05721676	     89.95437384	      0.00000000	      0.00000000	     15.74543961	     11.86923519	     11.54948464	     47.40915538	     89.95437384	      0.00000000	      0.00000000
